<svg width="26" height="26" viewBox="0 0 26 26" fill="none" xmlns="http://www.w3.org/2000/svg">
<path d="M21.125 4.0625H16.25C15.8013 4.0625 15.4375 4.42627 15.4375 4.875V21.125C15.4375 21.5737 15.8013 21.9375 16.25 21.9375H21.125C21.5737 21.9375 21.9375 21.5737 21.9375 21.125V4.875C21.9375 4.42627 21.5737 4.0625 21.125 4.0625Z" stroke="#054BB4" stroke-width="2" stroke-linecap="round" stroke-linejoin="round"/>
<path d="M15.4375 8.9375H18.6875" stroke="#054BB4" stroke-width="2" stroke-linecap="round" stroke-linejoin="round"/>
<path d="M15.4375 13H18.6875" stroke="#054BB4" stroke-width="2" stroke-linecap="round" stroke-linejoin="round"/>
<path d="M15.4375 17.0625H18.6875" stroke="#054BB4" stroke-width="2" stroke-linecap="round" stroke-linejoin="round"/>
<path d="M4.0625 6.5L7.3125 3.25L10.5625 6.5V21.125C10.5625 21.3405 10.4769 21.5472 10.3245 21.6995C10.1722 21.8519 9.96549 21.9375 9.75 21.9375H4.875C4.65951 21.9375 4.45285 21.8519 4.30048 21.6995C4.1481 21.5472 4.0625 21.3405 4.0625 21.125V6.5Z" stroke="#054BB4" stroke-width="2" stroke-linecap="round" stroke-linejoin="round"/>
<path d="M7.3125 7.3125V18.6875" stroke="#054BB4" stroke-width="2" stroke-linecap="round" stroke-linejoin="round"/>
<path d="M10.5625 7.3125H4.0625" stroke="#054BB4" stroke-width="2" stroke-linecap="round" stroke-linejoin="round"/>
<path d="M10.5625 18.6875H4.0625" stroke="#054BB4" stroke-width="2" stroke-linecap="round" stroke-linejoin="round"/>
</svg>
