<svg width="26" height="26" viewBox="0 0 26 26" fill="none" xmlns="http://www.w3.org/2000/svg">
<path d="M13 13L22.75 3.25" stroke="#054BB4" stroke-width="2" stroke-linecap="round" stroke-linejoin="round"/>
<path d="M19.8947 6.10599C18.1677 4.3831 15.857 3.37114 13.4197 3.27029C10.9824 3.16945 8.59596 3.98707 6.73258 5.56141C4.8692 7.13575 3.66458 9.35213 3.35703 11.7721C3.04947 14.192 3.66139 16.6393 5.07173 18.6297C6.48206 20.6201 8.58808 22.0086 10.9731 22.5207C13.3582 23.0327 15.8486 22.6309 17.9516 21.3948C20.0546 20.1586 21.6171 18.1782 22.3299 15.8453C23.0428 13.5123 22.854 10.9968 21.801 8.79638" stroke="#054BB4" stroke-width="2" stroke-linecap="round" stroke-linejoin="round"/>
<path d="M16.447 9.55296C15.6406 8.74751 14.5774 8.25008 13.4423 8.14713C12.3072 8.04418 11.1719 8.34222 10.2337 8.98945C9.29548 9.63668 8.61373 10.5922 8.30691 11.6899C8.00009 12.7876 8.08759 13.9581 8.55421 14.998C9.02082 16.0379 9.83706 16.8814 10.861 17.3819C11.885 17.8825 13.052 18.0084 14.1592 17.7379C15.2664 17.4673 16.2438 16.8173 16.9215 15.9009C17.5993 14.9845 17.9345 13.8596 17.8689 12.7217" stroke="#054BB4" stroke-width="2" stroke-linecap="round" stroke-linejoin="round"/>
</svg>
